<svg width="442" height="466" viewBox="0 0 442 466" fill="none" xmlns="http://www.w3.org/2000/svg">
<path d="M441.5 77.2617C441.5 223.893 378 451.762 228.5 465.262C78 454.262 0 223.893 0 77.2617C0 -69.3699 78.5547 37.7617 228.5 37.7617C378.445 37.7617 441.5 -69.3699 441.5 77.2617Z" fill="#6D5F89"/>
<path d="M354 162.354C354 171.374 332.286 197 305.5 197C278.714 197 257 171.374 257 162.354C257 153.333 278.714 166 305.5 166C332.286 166 354 153.333 354 162.354Z" fill="black"/>
<path d="M199 333C198.425 316.51 206.738 319.68 226.726 318.982C276.677 317.238 288.766 365.979 289.5 387C290.234 408.021 277.56 345.139 227.595 343.855C208.065 343.353 199.369 343.56 199 333Z" fill="black"/>
<path d="M228.5 465.5L224.5 39.5V38H222.5H216.5L209.5 37.5L203.5 37L196.5 36.5L188 35.5L180.5 34.5L174.5 33.5L168.5 32.5L163.5 31.5L158.5 30.5L154 29.5L149 28.5L143 27L139 26L133 24.5L127.5 23L120.5 21L115 19.5L109 17.5L102 15.5L91.5 12L79.5 8.5L75 7L71.5 6L67.5 5L63.5 4L59.5 3L55 2L50 1L46.2855 0.5L40.5 0H36L32 0.5L27.5 1.5L24.5 2.5L21.5 4L18.5 6L15.5 8.5L12.5 12L10.5 15L8.5 19L6.5 23L5 27.5L3.5 33.5L2.5 39L2 44L1 51.5L0.5 58.5L0 69V83L0.5 96.5L1.5 111.5L3 129L3.5 136L4.5 144L6 152.5L7 159.5L8 166.5L9.5 175L11.5 184L13 191L15.5 202L17.5 211L19.5 219.5L22 228.5L25 238.5L28 248.5L31 257.5L34.5 267.5L37.5 275.5L40.5 283.5L43.5 291L46.5 298L49.5 305L51.5 309.5L54.5 316L58 323L61.5 329.5L64.5 335.5L68 341.5L71.5 347.5L74.5 353L78 358.5L81.5 364L85 369.5L88.5 374.5L93 380.5L97 386L101 391L105.5 396.5L111 402.5L116 408L123.5 415.5L131 422.5L137.5 428L146 434.5L153.5 439.5L162.5 445L171 449.5L180.5 454L190 457.5L198.5 460L207.5 462.5L215.5 464L223 465L228.5 465.5Z" fill="#EBEBEB"/>
<path d="M200 187.647C200 178.626 178.286 153 151.5 153C124.714 153 103 178.626 103 187.647C103 196.667 124.714 187.647 151.5 187.647C178.286 187.647 200 196.667 200 187.647Z" fill="#192061"/>
<path d="M227 328C227 346 229 344 217.5 344C167.919 344 150 279.418 150 258.476C150 237.535 166.874 317.773 216.434 319.185C227.5 319.5 227 316.5 227 328Z" fill="#192061"/>
<path d="M223.51 343.5L223.99 319.58L226.605 319.513L226.835 343.5H223.51Z" fill="#192061" stroke="#192061"/>
</svg>
